<svg width="1394" height="134" viewBox="0 0 1394 134" fill="none" xmlns="http://www.w3.org/2000/svg">
<path d="M84.24 82.44L68.4 39.15C67.62 37.23 66.81 34.95 65.97 32.31C65.13 29.67 64.29 26.82 63.45 23.76C62.67 26.82 61.86 29.7 61.02 32.4C60.18 35.04 59.37 37.35 58.59 39.33L42.84 82.44H84.24ZM126.99 131.58H108.27C106.17 131.58 104.46 131.07 103.14 130.05C101.82 128.97 100.83 127.65 100.17 126.09L90.45 99.54H36.54L26.82 126.09C26.34 127.47 25.41 128.73 24.03 129.87C22.65 131.01 20.94 131.58 18.9 131.58H-3.07336e-07L51.21 1.43999H75.87L126.99 131.58ZM224.79 63.36C229.35 63.36 233.31 62.79 236.67 61.65C240.09 60.51 242.88 58.95 245.04 56.97C247.26 54.93 248.91 52.53 249.99 49.77C251.07 47.01 251.61 43.98 251.61 40.68C251.61 34.08 249.42 29.01 245.04 25.47C240.72 21.93 234.09 20.16 225.15 20.16H209.67V63.36H224.79ZM287.07 131.58H265.2C261.06 131.58 258.06 129.96 256.2 126.72L228.84 85.05C227.82 83.49 226.68 82.38 225.42 81.72C224.22 81.06 222.42 80.73 220.02 80.73H209.67V131.58H185.46V1.43999H225.15C233.97 1.43999 241.53 2.37 247.83 4.23C254.19 6.02999 259.38 8.58 263.4 11.88C267.48 15.18 270.48 19.14 272.4 23.76C274.32 28.32 275.28 33.36 275.28 38.88C275.28 43.26 274.62 47.4 273.3 51.3C272.04 55.2 270.18 58.74 267.72 61.92C265.32 65.1 262.32 67.89 258.72 70.29C255.18 72.69 251.13 74.58 246.57 75.96C248.13 76.86 249.57 77.94 250.89 79.2C252.21 80.4 253.41 81.84 254.49 83.52L287.07 131.58ZM433.737 100.89C435.057 100.89 436.227 101.4 437.247 102.42L446.787 112.77C441.507 119.31 434.997 124.32 427.257 127.8C419.577 131.28 410.337 133.02 399.537 133.02C389.877 133.02 381.177 131.37 373.437 128.07C365.757 124.77 359.187 120.18 353.727 114.3C348.267 108.42 344.067 101.4 341.127 93.24C338.247 85.08 336.807 76.17 336.807 66.51C336.807 56.73 338.367 47.79 341.487 39.69C344.607 31.53 348.987 24.51 354.627 18.63C360.327 12.75 367.107 8.19 374.967 4.95C382.827 1.65 391.527 2.6226e-06 401.067 2.6226e-06C410.547 2.6226e-06 418.947 1.56 426.267 4.68C433.647 7.8 439.917 11.88 445.077 16.92L436.977 28.17C436.497 28.89 435.867 29.52 435.087 30.06C434.367 30.6 433.347 30.87 432.027 30.87C431.127 30.87 430.197 30.63 429.237 30.15C428.277 29.61 427.227 28.98 426.087 28.26C424.947 27.48 423.627 26.64 422.127 25.74C420.627 24.84 418.887 24.03 416.907 23.31C414.927 22.53 412.617 21.9 409.977 21.42C407.397 20.88 404.397 20.61 400.977 20.61C395.157 20.61 389.817 21.66 384.957 23.76C380.157 25.8 376.017 28.8 372.537 32.76C369.057 36.66 366.357 41.46 364.437 47.16C362.517 52.8 361.557 59.25 361.557 66.51C361.557 73.83 362.577 80.34 364.617 86.04C366.717 91.74 369.537 96.54 373.077 100.44C376.617 104.34 380.787 107.34 385.587 109.44C390.387 111.48 395.547 112.5 401.067 112.5C404.367 112.5 407.337 112.32 409.977 111.96C412.677 111.6 415.137 111.03 417.357 110.25C419.637 109.47 421.767 108.48 423.747 107.28C425.787 106.02 427.797 104.49 429.777 102.69C430.377 102.15 431.007 101.73 431.667 101.43C432.327 101.07 433.017 100.89 433.737 100.89ZM618.081 1.43999V131.58H593.781V74.7H532.671V131.58H508.371V1.43999H532.671V57.42H593.781V1.43999H618.081ZM716.362 20.7V56.79H761.902V75.42H716.362V112.23H774.142V131.58H692.062V1.43999H774.142V20.7H716.362ZM931.497 21.33H892.257V131.58H868.047V21.33H828.807V1.43999H931.497V21.33ZM1049.42 81.18V131.58H1025.3V81.18L977.867 1.43999H999.197C1001.3 1.43999 1002.95 1.95 1004.15 2.97C1005.41 3.99 1006.46 5.28 1007.3 6.84L1031.06 50.31C1032.44 52.89 1033.64 55.32 1034.66 57.6C1035.74 59.88 1036.7 62.16 1037.54 64.44C1038.32 62.16 1039.22 59.88 1040.24 57.6C1041.26 55.32 1042.43 52.89 1043.75 50.31L1067.42 6.84C1068.08 5.52 1069.07 4.29 1070.39 3.15C1071.71 2.01 1073.39 1.43999 1075.43 1.43999H1096.85L1049.42 81.18ZM1197.55 66.87C1201.99 66.87 1205.86 66.33 1209.16 65.25C1212.46 64.11 1215.19 62.52 1217.35 60.48C1219.57 58.38 1221.22 55.86 1222.3 52.92C1223.38 49.92 1223.92 46.59 1223.92 42.93C1223.92 39.45 1223.38 36.3 1222.3 33.48C1221.22 30.66 1219.6 28.26 1217.44 26.28C1215.28 24.3 1212.55 22.8 1209.25 21.78C1205.95 20.7 1202.05 20.16 1197.55 20.16H1179.46V66.87H1197.55ZM1197.55 1.43999C1206.25 1.43999 1213.78 2.46 1220.14 4.5C1226.5 6.54 1231.75 9.39 1235.89 13.05C1240.03 16.71 1243.09 21.09 1245.07 26.19C1247.11 31.29 1248.13 36.87 1248.13 42.93C1248.13 49.23 1247.08 55.02 1244.98 60.3C1242.88 65.52 1239.73 70.02 1235.53 73.8C1231.33 77.58 1226.05 80.52 1219.69 82.62C1213.39 84.72 1206.01 85.77 1197.55 85.77H1179.46V131.58H1155.25V1.43999H1197.55ZM1335.99 20.7V56.79H1381.53V75.42H1335.99V112.23H1393.77V131.58H1311.69V1.43999H1393.77V20.7H1335.99Z" fill="white"/>
</svg>
